<svg width="30" height="30" viewBox="0 0 30 30" fill="none" xmlns="http://www.w3.org/2000/svg">
<path d="M19.6376 15.8875C20.8631 14.9234 21.7576 13.6012 22.1967 12.105C22.6357 10.6087 22.5975 9.01287 22.0874 7.53937C21.5772 6.06587 20.6204 4.78802 19.3502 3.8836C18.08 2.97918 16.5594 2.49316 15.0001 2.49316C13.4408 2.49316 11.9203 2.97918 10.65 3.8836C9.3798 4.78802 8.42305 6.06587 7.91288 7.53937C7.40272 9.01287 7.36451 10.6087 7.80357 12.105C8.24263 13.6012 9.13713 14.9234 10.3626 15.8875C8.26271 16.7288 6.43048 18.1242 5.06123 19.9249C3.69199 21.7256 2.83707 23.8642 2.58762 26.1125C2.56956 26.2767 2.58401 26.4428 2.63015 26.6014C2.67629 26.7599 2.7532 26.9078 2.85651 27.0367C3.06514 27.2969 3.3686 27.4636 3.70012 27.5C4.03164 27.5365 4.36407 27.4398 4.62427 27.2311C4.88448 27.0225 5.05115 26.7191 5.08762 26.3875C5.3621 23.944 6.52723 21.6873 8.36039 20.0485C10.1936 18.4097 12.5662 17.5038 15.0251 17.5038C17.484 17.5038 19.8567 18.4097 21.6898 20.0485C23.523 21.6873 24.6881 23.944 24.9626 26.3875C24.9966 26.6947 25.1432 26.9784 25.374 27.1838C25.6048 27.3892 25.9036 27.5019 26.2126 27.5H26.3501C26.6778 27.4623 26.9773 27.2967 27.1833 27.0391C27.3894 26.7815 27.4853 26.453 27.4501 26.125C27.1995 23.8703 26.34 21.7263 24.9637 19.9228C23.5874 18.1193 21.7463 16.7244 19.6376 15.8875ZM15.0001 15C14.0112 15 13.0445 14.7068 12.2223 14.1574C11.4 13.608 10.7592 12.8271 10.3807 11.9135C10.0023 10.9998 9.90326 9.99449 10.0962 9.02458C10.2891 8.05468 10.7653 7.16376 11.4646 6.4645C12.1638 5.76524 13.0548 5.28903 14.0247 5.09611C14.9946 4.90318 15.9999 5.0022 16.9135 5.38064C17.8272 5.75907 18.6081 6.39994 19.1575 7.22218C19.7069 8.04443 20.0001 9.01113 20.0001 10C20.0001 11.3261 19.4733 12.5979 18.5357 13.5356C17.598 14.4733 16.3262 15 15.0001 15Z" fill="white"/>
</svg>
