<svg width="40" height="40" viewBox="0 0 40 40" fill="none" xmlns="http://www.w3.org/2000/svg">
<rect width="40" height="40" rx="20" fill="#F7F7F7"/>
<path d="M28.8891 30V27.7778C28.8891 26.599 28.4209 25.4686 27.5874 24.6351C26.7539 23.8016 25.6234 23.3333 24.4447 23.3333H15.5558C14.377 23.3333 13.2466 23.8016 12.4131 24.6351C11.5796 25.4686 11.1113 26.599 11.1113 27.7778V30M24.4447 14.4444C24.4447 16.899 22.4548 18.8889 20.0002 18.8889C17.5456 18.8889 15.5558 16.899 15.5558 14.4444C15.5558 11.9898 17.5456 10 20.0002 10C22.4548 10 24.4447 11.9898 24.4447 14.4444Z" stroke="#232323" stroke-width="2.22222" stroke-linecap="round" stroke-linejoin="round"/>
</svg>
