<svg width="25" height="24" viewBox="0 0 25 24" fill="none" xmlns="http://www.w3.org/2000/svg">
<path d="M20.9165 21H8.9165C8.71759 21 8.52683 20.921 8.38617 20.7803C8.24552 20.6397 8.1665 20.4489 8.1665 20.25V16.5H4.4165C4.21759 16.5 4.02683 16.421 3.88617 16.2803C3.74552 16.1397 3.6665 15.9489 3.6665 15.75V3.75C3.6665 3.55109 3.74552 3.36032 3.88617 3.21967C4.02683 3.07902 4.21759 3 4.4165 3H16.4165C16.6154 3 16.8062 3.07902 16.9468 3.21967C17.0875 3.36032 17.1665 3.55109 17.1665 3.75V7.5H20.9165C21.1154 7.5 21.3062 7.57902 21.4468 7.71967C21.5875 7.86032 21.6665 8.05109 21.6665 8.25V20.25C21.6665 20.4489 21.5875 20.6397 21.4468 20.7803C21.3062 20.921 21.1154 21 20.9165 21ZM15.6665 4.5H5.1665V15H15.6665V4.5ZM20.1665 9H17.1665V15.75C17.1665 15.9489 17.0875 16.1397 16.9468 16.2803C16.8062 16.421 16.6154 16.5 16.4165 16.5H9.6665V19.5H20.1665V9Z" fill="black"/>
</svg>
