<svg width="132" height="30" viewBox="0 0 132 30" fill="none" xmlns="http://www.w3.org/2000/svg">
<g clip-path="url(#clip0_58_700)">
<g clip-path="url(#clip1_58_700)">
<g clip-path="url(#clip2_58_700)">
<path d="M12.6317 22.3743C14.2525 22.3743 15.7089 21.9045 17.0008 20.9649C18.2928 20.0018 19.1854 18.7686 19.6787 17.2652L24.1184 19.485C23.2023 21.8106 21.6989 23.7015 19.6083 25.1579C17.5411 26.5908 15.2156 27.3073 12.6317 27.3073C9.22561 27.3073 6.31279 26.1093 3.89332 23.7133C1.49732 21.2938 0.299316 18.381 0.299316 14.9749C0.299316 11.5689 1.49732 8.66781 3.89332 6.27181C6.31279 3.85232 9.22561 2.64258 12.6317 2.64258C15.2156 2.64258 17.5411 3.37078 19.6083 4.82717C21.6989 6.26005 23.2023 8.13928 24.1184 10.4648L19.6787 12.6846C19.1854 11.1813 18.2928 9.95976 17.0008 9.02017C15.7089 8.05705 14.2525 7.57552 12.6317 7.57552C10.588 7.57552 8.83802 8.3037 7.38161 9.76011C5.94872 11.193 5.23226 12.9313 5.23226 14.9749C5.23226 17.0186 5.94872 18.7686 7.38161 20.225C8.83802 21.6579 10.588 22.3743 12.6317 22.3743Z" fill="#030303"/>
<path d="M41.0319 27.3073L39.4464 22.3743H30.3204L28.6996 27.3073H23.7666L31.8003 2.64258H37.9665L45.9647 27.3073H41.0319ZM31.906 17.4414H37.8255L34.8658 8.3507L31.906 17.4414Z" fill="#030303"/>
<path d="M67.1033 19.908C67.1033 21.9987 66.4572 23.6547 65.1654 24.8762C63.8969 26.0977 62.0766 26.8611 59.7039 27.1665V29.7739H54.771V27.2017C53.4321 27.1078 52.1402 26.9316 50.8951 26.6732C49.6738 26.3913 48.781 26.1329 48.2172 25.898L47.3716 25.5809L49.3448 20.7889C52.4688 21.846 55.1 22.3745 57.2375 22.3745C60.3615 22.3745 61.9238 21.5523 61.9238 19.908C61.9238 19.4147 61.5595 19.0037 60.8315 18.6748C60.1268 18.3224 59.234 18.0523 58.1536 17.8644C57.0732 17.653 55.8985 17.3711 54.6301 17.0187C53.3849 16.6429 52.2222 16.2201 51.1418 15.7503C50.0614 15.257 49.1567 14.5288 48.4286 13.5657C47.7239 12.5791 47.3716 11.4046 47.3716 10.0422C47.3716 7.9985 48.0292 6.36592 49.3448 5.14444C50.6604 3.89947 52.4688 3.12429 54.771 2.81892V0.17627H59.7039V2.74845C60.9958 2.8659 62.1585 3.08906 63.1922 3.41792C64.2259 3.72329 64.9307 4.00517 65.3064 4.26356L65.8701 4.61592L63.8969 9.16127C61.5947 8.10421 59.3749 7.57568 57.2375 7.57568C54.1134 7.57568 52.5512 8.39785 52.5512 10.0422C52.5512 10.5354 52.9035 10.9583 53.6082 11.3106C54.3363 11.663 55.2409 11.9449 56.3213 12.1563C57.4017 12.3677 58.5645 12.6613 59.8096 13.0372C61.0781 13.413 62.2528 13.8476 63.3332 14.3409C64.4136 14.8107 65.3063 15.5271 66.0111 16.4902C66.7391 17.4533 67.1033 18.5926 67.1033 19.908Z" fill="#030303"/>
<path d="M83.2978 12.5085V2.64258H88.2308V27.3073H83.2978V17.4414H73.432V27.3073H68.499V2.64258H73.432V12.5085H83.2978Z" fill="#030303"/>
<path d="M107.786 2.64258V7.57552H95.4539V12.5085H105.32V17.4414H95.4539V22.3743H107.786V27.3073H90.521V2.64258H107.786Z" fill="#030303"/>
<path d="M129.832 12.5085C129.832 14.1528 129.432 15.7149 128.634 17.1948C127.859 18.6512 126.778 19.8374 125.392 20.7535L129.832 27.3073H124.406L121.023 22.3039L119.966 22.3743H115.033V27.3073H110.1V2.64258H119.966C122.691 2.64258 125.017 3.60568 126.943 5.53187C128.869 7.45805 129.832 9.78358 129.832 12.5085ZM119.966 7.57552H115.033V17.4414H119.966C121.328 17.4414 122.491 16.9599 123.454 15.9968C124.418 15.0336 124.899 13.8709 124.899 12.5085C124.899 11.146 124.418 9.98328 123.454 9.02017C122.491 8.05705 121.328 7.57552 119.966 7.57552Z" fill="#030303"/>
</g>
</g>
</g>
<defs>
<clipPath id="clip0_58_700">
<rect width="130" height="29.95" fill="white"/>
</clipPath>
<clipPath id="clip1_58_700">
<rect width="130" height="29.95" fill="white"/>
</clipPath>
<clipPath id="clip2_58_700">
<rect width="129.93" height="29.95" fill="white" transform="translate(0.0351562)"/>
</clipPath>
</defs>
</svg>
